<?xml version="1.0" encoding="utf-8"?>
<svg xmlns="http://www.w3.org/2000/svg" xmlns:xlink="http://www.w3.org/1999/xlink" width="95" height="24" viewBox="0 0 95 24">
    <defs>
        <path id="a" d="M26.843 1.514h-9.766L7.752 9.332V.046L.212 6.333V23.82l9.8-8.21 7.797 7.53h10.465l-13.07-11.878 11.639-9.75"/>
    </defs>
    <g fill="none" fill-rule="evenodd">
        <g>
            <mask id="b" fill="#fff">
                <use xlink:href="#a"/>
            </mask>
            <path fill="#FFF" d="M26.843 1.514h-9.766L7.752 9.332V.046L.212 6.333V23.82l9.8-8.21 7.797 7.53h10.465l-13.07-11.878 11.639-9.75" mask="url(#b)"/>
        </g>
        <path fill="#FFFFFE" d="M43.338 7.111h-2.892l-4.237 4.393V7.111h-2.431v9.778h2.43V14.23l1.644-1.652 2.892 4.31h2.812L39.59 10.98l3.748-3.87M49.06 13.074l.95-2.451c.307-.703.503-1.157.643-1.818h.028c.154.66.349 1.115.656 1.818l.95 2.451H49.06zm.125-5.963l-3.852 8.922v.856h2.23l.84-2.135h4.542l.825 2.135H56v-.86l-3.838-8.918h-2.977zM63.612 15.195h-2.584v-2.492h2.61c.976 0 1.452.481 1.452 1.225 0 .73-.462 1.267-1.478 1.267zm-2.584-6.39h2.452c1.003 0 1.372.51 1.372 1.116 0 .633-.33 1.184-1.372 1.184h-2.452v-2.3zm4.536 2.975c1.16-.29 1.754-1.143 1.754-2.176 0-1.419-1.002-2.493-3.191-2.493h-5.46v9.778h5.565c2.295 0 3.324-1.24 3.324-2.768 0-1.28-.686-2.135-1.992-2.341zM90.769 7.111l-2.046 5.977c-.132.427-.239.812-.278 1.143h-.027a6.512 6.512 0 0 0-.266-1.13l-2.085-5.99h-3.4v9.778h2.045v-6.542c0-.454-.013-.908-.066-1.266h.053c.053.302.173.757.305 1.115l2.325 6.693h2.098l2.311-6.693c.133-.358.28-.868.332-1.13h.04c-.04.414-.066.868-.066 1.281v6.542h2.178V7.11H90.77M73.06 13.074l.95-2.451c.307-.703.503-1.157.643-1.818h.028c.153.66.349 1.115.656 1.818l.95 2.451H73.06zm.125-5.963l-3.852 8.922v.856h2.23l.84-2.135h4.542l.825 2.135H80v-.86l-3.838-8.918h-2.977z"/>
    </g>
</svg>
